<svg xmlns="http://www.w3.org/2000/svg" version="1.1" xmlns:xlink="http://www.w3.org/1999/xlink" xmlns:svgjs="http://svgjs.dev/svgjs" width="1440" height="560" preserveAspectRatio="none" viewBox="0 0 1440 560"><g mask="url(&quot;#SvgjsMask1004&quot;)" fill="none"><rect width="1440" height="560" x="0" y="0" fill="rgba(255, 255, 255, 1)"></rect><path d="M199.07 95.35 a16.57 16.57 0 1 0 33.14 0 a16.57 16.57 0 1 0 -33.14 0z" fill="rgba(4, 4, 131, 1)"></path><path d="M580.22 497.75L608.62 497.75L608.62 506.7L580.22 506.7z" fill="rgba(52, 52, 182, 1)"></path><path d="M352.41 29.09 a34.96 34.96 0 1 0 69.92 0 a34.96 34.96 0 1 0 -69.92 0z" fill="rgba(199, 199, 199, 1)"></path><path d="M463.33 549.75L475.89 549.75L475.89 562.31L463.33 562.31z" fill="rgba(199, 199, 199, 1)"></path><path d="M1084.29 358.62 a37.76 37.76 0 1 0 75.52 0 a37.76 37.76 0 1 0 -75.52 0z" stroke="rgba(199, 199, 199, 1)"></path><path d="M1337.99 379.53 a52.36 52.36 0 1 0 104.72 0 a52.36 52.36 0 1 0 -104.72 0z" fill="rgba(4, 4, 131, 1)"></path><path d="M562.22 221.42L579.04 221.42L579.04 238.24L562.22 238.24z" fill="rgba(52, 52, 182, 1)"></path><path d="M1404.51 441.36a12.49 12.49 0 1 0-17.49 17.84z" fill="rgba(52, 52, 182, 1)"></path><path d="M119.89 460.76L159.55 460.76L159.55 500.42L119.89 500.42z" fill="rgba(199, 199, 199, 1)"></path><path d="M374.37 111.73a26.7 26.7 0 1 0-11-52.26z" stroke="rgba(199, 199, 199, 1)"></path><path d="M457.56 522.29L461.58 522.29L461.58 526.31L457.56 526.31z" stroke="rgba(52, 52, 182, 1)"></path><path d="M1406.63 287.53L1412.68 287.53L1412.68 320.03L1406.63 320.03z" fill="rgba(4, 4, 131, 1)"></path><path d="M827.79 402.84L836.78 402.84L836.78 438.13L827.79 438.13z" stroke="rgba(4, 4, 131, 1)"></path><path d="M419.43 350.95a6.92 6.92 0 1 0 1.26-13.78z" stroke="rgba(52, 52, 182, 1)"></path><path d="M678.42 334.56L720.53 334.56L720.53 379.67L678.42 379.67z" fill="rgba(199, 199, 199, 1)"></path><path d="M1198.9 354.47L1216.92 354.47L1216.92 372.49L1198.9 372.49z" fill="rgba(4, 4, 131, 1)"></path><path d="M366.36 101.2L393.31 101.2L393.31 128.15L366.36 128.15z" fill="rgba(4, 4, 131, 1)"></path><path d="M232.98 388.5L239.82 388.5L239.82 395.34L232.98 395.34z" stroke="rgba(4, 4, 131, 1)"></path><path d="M416.03 446.69a9.83 9.83 0 1 0-18.18-7.49z" fill="rgba(4, 4, 131, 1)"></path><path d="M696.71 101.11 a33.68 33.68 0 1 0 67.36 0 a33.68 33.68 0 1 0 -67.36 0z" stroke="rgba(52, 52, 182, 1)"></path><path d="M763.13 251.58L774.66 251.58L774.66 263.11L763.13 263.11z" stroke="rgba(4, 4, 131, 1)"></path><path d="M471.05 274.51L524.22 274.51L524.22 327.68L471.05 327.68z" stroke="rgba(52, 52, 182, 1)"></path><path d="M503.28 95.28L551.51 95.28L551.51 143.51L503.28 143.51z" fill="rgba(4, 4, 131, 1)"></path><path d="M788.69 249.02L823.6 249.02L823.6 300.78L788.69 300.78z" stroke="rgba(4, 4, 131, 1)"></path><path d="M717.95 4.61 a38.3 38.3 0 1 0 76.6 0 a38.3 38.3 0 1 0 -76.6 0z" fill="rgba(199, 199, 199, 1)"></path><path d="M228.19 70.64L255.11 70.64L255.11 97.56L228.19 97.56z" stroke="rgba(52, 52, 182, 1)"></path><path d="M969.75 366.66a18.04 18.04 0 1 0 32.84-14.92z" stroke="rgba(4, 4, 131, 1)"></path><path d="M359.94 462.75 a37.79 37.79 0 1 0 75.58 0 a37.79 37.79 0 1 0 -75.58 0z" stroke="rgba(4, 4, 131, 1)"></path><path d="M477.65 1.95L510.42 1.95L510.42 34.72L477.65 34.72z" fill="rgba(52, 52, 182, 1)"></path><path d="M523.87 397.83L558.97 397.83L558.97 452.88L523.87 452.88z" fill="rgba(4, 4, 131, 1)"></path><path d="M776.11 498.04L802.59 498.04L802.59 539.96L776.11 539.96z" fill="rgba(199, 199, 199, 1)"></path><path d="M123.67 111.62a8.39 8.39 0 1 0-3 16.51z" stroke="rgba(52, 52, 182, 1)"></path><path d="M816.75 161.61L862.18 161.61L862.18 185.47L816.75 185.47z" stroke="rgba(52, 52, 182, 1)"></path></g><defs><mask id="SvgjsMask1004"><rect width="1440" height="560" fill="#ffffff"></rect></mask></defs></svg>