<svg xmlns="http://www.w3.org/2000/svg" version="1.1" xmlns:xlink="http://www.w3.org/1999/xlink" xmlns:svgjs="http://svgjs.dev/svgjs" width="1440" height="560" preserveAspectRatio="none" viewBox="0 0 1440 560"><g mask="url(&quot;#SvgjsMask1006&quot;)" fill="none"><rect width="1440" height="560" x="0" y="0" fill="rgba(16, 27, 55, 1)"></rect><path d="M194.12 438.63a28.51 28.51 0 1 0-40.59 40.05z" stroke="rgba(4, 4, 131, 1)"></path><path d="M938.68 314.64a37.84 37.84 0 1 0-43.95-61.6z" fill="rgba(4, 4, 131, 1)"></path><path d="M1129.11 557.54 a35.97 35.97 0 1 0 71.94 0 a35.97 35.97 0 1 0 -71.94 0z" stroke="rgba(4, 4, 131, 1)"></path><path d="M419.57 206.28L423.49 206.28L423.49 210.2L419.57 210.2z" fill="rgba(4, 4, 131, 1)"></path><path d="M664.56 299.89L686.91 299.89L686.91 320.94L664.56 320.94z" stroke="rgba(4, 4, 131, 1)"></path><path d="M1084.56 294.18L1134.99 294.18L1134.99 344.61L1084.56 344.61z" fill="rgba(4, 4, 131, 1)"></path><path d="M899.42 202.08a50.5 50.5 0 1 0-33.94 95.12z" stroke="rgba(4, 4, 131, 1)"></path><path d="M326.87 147.42L382.35 147.42L382.35 176.73L326.87 176.73z" stroke="rgba(4, 4, 131, 1)"></path><path d="M786.81 418.89L832.8 418.89L832.8 424.92L786.81 424.92z" fill="rgba(4, 4, 131, 1)"></path><path d="M1194.25 375.08a29.1 29.1 0 1 0 10.3 57.28z" stroke="rgba(4, 4, 131, 1)"></path><path d="M1363.87 314.63a29.04 29.04 0 1 0-48.17 32.45z" stroke="rgba(4, 4, 131, 1)"></path><path d="M907.73 476.83a32.95 32.95 0 1 0 15.26-64.11z" fill="rgba(4, 4, 131, 1)"></path><path d="M610.37 536.61 a46.15 46.15 0 1 0 92.3 0 a46.15 46.15 0 1 0 -92.3 0z" fill="rgba(4, 4, 131, 1)"></path><path d="M1251.91 121.09L1296.89 121.09L1296.89 163.55L1251.91 163.55z" fill="rgba(4, 4, 131, 1)"></path><path d="M658.73 217.15 a48.71 48.71 0 1 0 97.42 0 a48.71 48.71 0 1 0 -97.42 0z" stroke="rgba(4, 4, 131, 1)"></path><path d="M1012.61 481.31L1017.69 481.31L1017.69 519.26L1012.61 519.26z" fill="rgba(4, 4, 131, 1)"></path><path d="M538.36 385.45L579.79 385.45L579.79 426.88L538.36 426.88z" fill="rgba(4, 4, 131, 1)"></path><path d="M1252.14 58.53L1300.52 58.53L1300.52 106.91L1252.14 106.91z" stroke="rgba(4, 4, 131, 1)"></path><path d="M121.63 194.95L148.07 194.95L148.07 211.88L121.63 211.88z" fill="rgba(4, 4, 131, 1)"></path><path d="M824.41 60.95 a23.78 23.78 0 1 0 47.56 0 a23.78 23.78 0 1 0 -47.56 0z" fill="rgba(4, 4, 131, 1)"></path><path d="M777 445.4a8.24 8.24 0 1 0-13.09 10.01z" fill="rgba(4, 4, 131, 1)"></path><path d="M977.33 352.71 a22.18 22.18 0 1 0 44.36 0 a22.18 22.18 0 1 0 -44.36 0z" fill="rgba(4, 4, 131, 1)"></path><path d="M354.81 484.73L406.85 484.73L406.85 516.88L354.81 516.88z" stroke="rgba(4, 4, 131, 1)"></path><path d="M1398.17 242.23L1448.15 242.23L1448.15 292.21L1398.17 292.21z" stroke="rgba(4, 4, 131, 1)"></path><path d="M1398.21 255.12a17.56 17.56 0 1 0 34.94-3.52z" fill="rgba(4, 4, 131, 1)"></path><path d="M776.72 273.24L808.32 273.24L808.32 304.84L776.72 304.84z" stroke="rgba(4, 4, 131, 1)"></path><path d="M1124.1 512.89L1140.44 512.89L1140.44 563.45L1124.1 563.45z" stroke="rgba(4, 4, 131, 1)"></path><path d="M1170.69 413.74L1176.3 413.74L1176.3 428.9L1170.69 428.9z" stroke="rgba(4, 4, 131, 1)"></path><path d="M668.23 88.56L690.41 88.56L690.41 136.55L668.23 136.55z" stroke="rgba(4, 4, 131, 1)"></path><path d="M630.44 430.08L633.13 430.08L633.13 432.77L630.44 432.77z" stroke="rgba(4, 4, 131, 1)"></path><path d="M514.11 305.64 a38.33 38.33 0 1 0 76.66 0 a38.33 38.33 0 1 0 -76.66 0z" stroke="rgba(4, 4, 131, 1)"></path><path d="M1202.07 551.76 a9.94 9.94 0 1 0 19.88 0 a9.94 9.94 0 1 0 -19.88 0z" stroke="rgba(4, 4, 131, 1)"></path><path d="M903.69 368.71L926.77 368.71L926.77 391.1L903.69 391.1z" fill="rgba(4, 4, 131, 1)"></path></g><defs><mask id="SvgjsMask1006"><rect width="1440" height="560" fill="#ffffff"></rect></mask></defs></svg>