<?xml version="1.0" standalone="no"?><svg xmlns:xlink="http://www.w3.org/1999/xlink" xmlns="http://www.w3.org/2000/svg" viewBox="0 0 1000 599.985154532043" preserveAspectRatio="xMaxYMax slice"><g transform="scale(1.855683494623157)"><rect x="0" y="0" width="538.8883333333333" height="323.33299999999997" fill="#ffffff"/><rect x="0" y="0" width="53.89" height="53.89" fill="#ffffff"/><polygon points="53.89,0 53.89,53.89 0,53.89" fill="#d9d9ec"/><rect x="53.88883333333333" y="0" width="53.88883333333333" height="53.88883333333333" fill="#ffffff"/><rect x="53.89" y="0" width="26.94" height="26.94" fill="#ffffff"/><polygon points="80.83,0 80.83,26.94 53.89,26.94" fill="#6c6cb6"/><rect x="80.83" y="0" width="26.94" height="26.94" fill="#8080d7"/><polygon points="80.83,0 107.77,26.94 80.83,26.94" fill="#f5f5fa"/><rect x="53.89" y="26.94" width="26.94" height="26.94" fill="#d3d3e9"/><polygon points="53.89,26.94 80.83,26.94 53.89,53.88" fill="#5f5fb0"/><rect x="80.83" y="26.94" width="26.94" height="26.94" fill="#b6b6e8"/><polygon points="80.83,26.94 107.77,26.94 107.77,53.88" fill="#3c3c9f"/><rect x="107.77766666666666" y="0" width="53.88883333333333" height="53.88883333333333" fill="#ffffff"/><rect x="107.78" y="0" width="26.94" height="26.94" fill="#ffffff"/><polygon points="134.72,0 134.72,26.94 107.78,26.94" fill="#4646c5"/><rect x="134.72" y="0" width="26.94" height="26.94" fill="#4d4da7"/><polygon points="134.72,0 161.66,26.94 134.72,26.94" fill="#fbfbfe"/><rect x="107.78" y="26.94" width="26.94" height="26.94" fill="#ffffff"/><polygon points="107.78,26.94 134.72,26.94 134.72,53.88" fill="#ffffff"/><rect x="134.72" y="26.94" width="26.94" height="26.94" fill="#ffffff"/><polygon points="134.72,26.94 161.66,26.94 134.72,53.88" fill="#070785"/><rect x="161.66649999999998" y="0" width="53.88883333333333" height="53.88883333333333" fill="#ffffff"/><rect x="161.67" y="0" width="26.94" height="26.94" fill="#ffffff"/><polygon points="188.60999999999999,0 188.60999999999999,26.94 161.67,26.94" fill="#ffffff"/><rect x="188.61" y="0" width="26.94" height="26.94" fill="#6c6cb6"/><polygon points="188.61,0 215.55,0 188.61,26.94" fill="#ffffff"/><rect x="161.67" y="26.94" width="26.94" height="26.94" fill="#ffffff"/><polygon points="161.67,26.94 188.60999999999999,26.94 188.60999999999999,53.88" fill="#ffffff"/><rect x="188.61" y="26.94" width="26.94" height="26.94" fill="#ffffff"/><polygon points="188.61,26.94 215.55,53.88 188.61,53.88" fill="#ffffff"/><rect x="215.56" y="0" width="53.89" height="53.89" fill="#ffffff"/><polygon points="215.56,0 269.45,53.89 215.56,53.89" fill="#a1a1d1"/><rect x="269.44" y="0" width="53.89" height="53.89" fill="#b9b9e9"/><path d="M 269.44 53.89 A 53.89 53.89 0 0 1  323.33 0 L 323.33 53.89L269.44 53.89" fill="#ffffff"/><rect x="323.33" y="0" width="53.89" height="53.89" fill="#a0a0e1"/><polygon points="323.33,0 377.21999999999997,0 377.21999999999997,53.89" fill="#d3d3e9"/><rect x="377.22183333333334" y="0" width="53.88883333333333" height="53.88883333333333" fill="#ffffff"/><rect x="377.22" y="0" width="26.94" height="26.94" fill="#5c5caf"/><circle cx="390.69000000000005" cy="13.47" r="13.47" fill="#8181d7"/><rect x="404.17" y="0" width="26.94" height="26.94" fill="#ffffff"/><rect x="404.17" y="0" width="26.94" height="26.94" fill="#ffffff"/><rect x="377.22" y="26.94" width="26.94" height="26.94" fill="#ffffff"/><circle cx="390.69000000000005" cy="40.410000000000004" r="13.47" fill="#c2c2ec"/><rect x="404.17" y="26.94" width="26.94" height="26.94" fill="#9090c8"/><rect x="404.17" y="26.94" width="26.94" height="26.94" fill="#ffffff"/><rect x="431.11" y="0" width="53.89" height="53.89" fill="#ceceef"/><polygon points="485,0 485,53.89 431.11,53.89" fill="#5555ab"/><rect x="484.99949999999995" y="0" width="53.88883333333333" height="53.88883333333333" fill="#ffffff"/><rect x="485" y="0" width="26.94" height="26.94" fill="#ffffff"/><polygon points="511.94,0 511.94,26.94 485,26.94" fill="#202091"/><rect x="511.94" y="0" width="26.94" height="26.94" fill="#2828bb"/><polygon points="511.94,0 538.88,0 511.94,26.94" fill="#ababe4"/><rect x="485" y="26.94" width="26.94" height="26.94" fill="#ffffff"/><polygon points="485,26.94 511.94,26.94 511.94,53.88" fill="#7474d3"/><rect x="511.94" y="26.94" width="26.94" height="26.94" fill="#cecee7"/><polygon points="511.94,26.94 538.88,53.88 511.94,53.88" fill="#6a6ab6"/><rect x="0" y="53.88883333333333" width="53.88883333333333" height="53.88883333333333" fill="#ffffff"/><rect x="0" y="53.89" width="26.94" height="26.94" fill="#ffffff"/><polygon points="26.94,53.89 26.94,80.83 0,80.83" fill="#6d6db7"/><rect x="26.94" y="53.89" width="26.94" height="26.94" fill="#9e9ecf"/><polygon points="26.94,53.89 53.88,80.83 26.94,80.83" fill="#c0c0e0"/><rect x="0" y="80.83" width="26.94" height="26.94" fill="#ffffff"/><polygon points="0,80.83 26.94,80.83 26.94,107.77" fill="#cacae5"/><rect x="26.94" y="80.83" width="26.94" height="26.94" fill="#a1a1e1"/><polygon points="26.94,80.83 53.88,80.83 26.94,107.77" fill="#4141a1"/><rect x="53.89" y="53.89" width="53.89" height="53.89" fill="#ffffff"/><rect x="53.89" y="53.89" width="53.89" height="53.89" fill="#c0c0eb"/><rect x="107.77766666666666" y="53.88883333333333" width="53.88883333333333" height="53.88883333333333" fill="#ffffff"/><rect x="107.78" y="53.89" width="26.94" height="26.94" fill="#a1a1d0"/><polygon points="134.72,53.89 134.72,80.83 107.78,80.83" fill="#8181d7"/><rect x="134.72" y="53.89" width="26.94" height="26.94" fill="#272794"/><polygon points="134.72,53.89 161.66,80.83 134.72,80.83" fill="#4d4dc7"/><rect x="107.78" y="80.83" width="26.94" height="26.94" fill="#ffffff"/><polygon points="107.78,80.83 134.72,80.83 134.72,107.77" fill="#4e4ea7"/><rect x="134.72" y="80.83" width="26.94" height="26.94" fill="#ffffff"/><polygon points="134.72,80.83 161.66,80.83 134.72,107.77" fill="#4545c5"/><rect x="161.67" y="53.89" width="53.89" height="53.89" fill="#c1c1eb"/><rect x="161.67" y="53.89" width="53.89" height="53.89" fill="#f0f0f7"/><rect x="215.55533333333332" y="53.88883333333333" width="53.88883333333333" height="53.88883333333333" fill="#ffffff"/><rect x="215.56" y="53.89" width="26.94" height="26.94" fill="#e6e6f7"/><polygon points="242.5,53.89 242.5,80.83 215.56,80.83" fill="#8282d8"/><rect x="242.5" y="53.89" width="26.94" height="26.94" fill="#ffffff"/><polygon points="242.5,53.89 269.44,53.89 242.5,80.83" fill="#ffffff"/><rect x="215.56" y="80.83" width="26.94" height="26.94" fill="#e4e4f7"/><polygon points="215.56,80.83 242.5,80.83 242.5,107.77" fill="#eaeaf8"/><rect x="242.5" y="80.83" width="26.94" height="26.94" fill="#6565b3"/><polygon points="242.5,80.83 269.44,107.77 242.5,107.77" fill="#7878bc"/><rect x="269.44" y="53.89" width="53.89" height="53.89" fill="#9e9ee1"/><path d="M 269.44 53.89 A 53.89 53.89 0 0 1 323.33 107.78 L 269.44 107.78L269.44 53.89" fill="#ffffff"/><rect x="323.33" y="53.89" width="53.89" height="53.89" fill="#6f6fd2"/><polygon points="323.33,53.89 377.21999999999997,53.89 323.33,107.78" fill="#a4a4e2"/><rect x="377.22183333333334" y="53.88883333333333" width="53.88883333333333" height="53.88883333333333" fill="#ffffff"/><rect x="377.22" y="53.89" width="26.94" height="26.94" fill="#ffffff"/><path d="M 377.22 53.89 A 26.94 26.94 0 0 0 404.16 80.83 L 404.16 53.89L377.22 53.89" fill="#e7e7f8"/><rect x="404.17" y="53.89" width="26.94" height="26.94" fill="#ffffff"/><path d="M 404.17 80.83 A 26.94 26.94 0 0 0 431.11 53.89 L 404.17 53.89L404.17 80.83" fill="#d1d1f1"/><rect x="377.22" y="80.83" width="26.94" height="26.94" fill="#2424ba"/><path d="M 377.22 107.77 A 26.94 26.94 0 0 1  404.16 80.83 L 404.16 107.77L377.22 107.77" fill="#ffffff"/><rect x="404.17" y="80.83" width="26.94" height="26.94" fill="#ffffff"/><path d="M 404.17 80.83 A 26.94 26.94 0 0 1 431.11 107.77 L 404.17 107.77L404.17 80.83" fill="#7d7dd6"/><rect x="431.11" y="53.89" width="53.89" height="53.89" fill="#4e4ec7"/><polygon points="485,53.89 485,107.78 431.11,107.78" fill="#ffffff"/><rect x="484.99949999999995" y="53.88883333333333" width="53.88883333333333" height="53.88883333333333" fill="#ffffff"/><rect x="485" y="53.89" width="26.94" height="26.94" fill="#2d2dbd"/><path d="M 485 53.89 A 26.94 26.94 0 0 0 511.94 80.83 L 511.94 53.89L485 53.89" fill="#7f7fc0"/><rect x="511.94" y="53.89" width="26.94" height="26.94" fill="#ffffff"/><path d="M 511.94 80.83 A 26.94 26.94 0 0 0 538.88 53.89 L 511.94 53.89L511.94 80.83" fill="#ffffff"/><rect x="485" y="80.83" width="26.94" height="26.94" fill="#ffffff"/><path d="M 485 107.77 A 26.94 26.94 0 0 1  511.94 80.83 L 511.94 107.77L485 107.77" fill="#ffffff"/><rect x="511.94" y="80.83" width="26.94" height="26.94" fill="#7575d4"/><path d="M 511.94 80.83 A 26.94 26.94 0 0 1 538.88 107.77 L 511.94 107.77L511.94 80.83" fill="#8d8ddb"/><rect x="0" y="107.78" width="53.89" height="53.89" fill="#e9e9f8"/><path d="M 0 161.67000000000002 A 53.89 53.89 0 0 1  53.89 107.78 L 53.89 161.67000000000002L0 161.67000000000002" fill="#6161b1"/><rect x="53.88883333333333" y="107.77766666666666" width="53.88883333333333" height="53.88883333333333" fill="#ffffff"/><rect x="53.89" y="107.78" width="26.94" height="26.94" fill="#ffffff"/><path d="M 53.89 134.72 A 26.94 26.94 0 0 1  80.83 107.78 L 80.83 134.72L53.89 134.72" fill="#ffffff"/><rect x="80.83" y="107.78" width="26.94" height="26.94" fill="#cdcde6"/><path d="M 80.83 107.78 A 26.94 26.94 0 0 1 107.77 134.72 L 80.83 134.72L80.83 107.78" fill="#ffffff"/><rect x="53.89" y="134.72" width="26.94" height="26.94" fill="#5f5fb0"/><path d="M 53.89 134.72 A 26.94 26.94 0 0 0 80.83 161.66 L 80.83 134.72L53.89 134.72" fill="#ffffff"/><rect x="80.83" y="134.72" width="26.94" height="26.94" fill="#a6a6d3"/><path d="M 80.83 161.66 A 26.94 26.94 0 0 0 107.77 134.72 L 80.83 134.72L80.83 161.66" fill="#ffffff"/><rect x="107.78" y="107.78" width="53.89" height="53.89" fill="#18188d"/><path d="M 107.78 107.78 A 53.89 53.89 0 0 1  161.67000000000002 161.67000000000002 L 107.78 107.78 A 53.89 53.89 0 0 0 161.67000000000002 161.67000000000002" fill="#ffffff"/><rect x="161.66649999999998" y="107.77766666666666" width="53.88883333333333" height="53.88883333333333" fill="#ffffff"/><rect x="161.67" y="107.78" width="26.94" height="26.94" fill="#0a0a86"/><path d="M 161.67 107.78 A 26.94 26.94 0 0 1 188.60999999999999 134.72 L 161.67 134.72L161.67 107.78" fill="#2c2c97"/><rect x="188.61" y="107.78" width="26.94" height="26.94" fill="#ededf9"/><path d="M 188.61 134.72 A 26.94 26.94 0 0 1  215.55 107.78 L 215.55 134.72L188.61 134.72" fill="#6262b2"/><rect x="161.67" y="134.72" width="26.94" height="26.94" fill="#8484d8"/><path d="M 161.67 161.66 A 26.94 26.94 0 0 0 188.60999999999999 134.72 L 161.67 134.72L161.67 161.66" fill="#ffffff"/><rect x="188.61" y="134.72" width="26.94" height="26.94" fill="#5454aa"/><path d="M 188.61 134.72 A 26.94 26.94 0 0 0 215.55 161.66 L 215.55 134.72L188.61 134.72" fill="#ffffff"/><rect x="215.56" y="107.78" width="53.89" height="53.89" fill="#ffffff"/><polygon points="215.56,107.78 269.45,107.78 269.45,161.67000000000002" fill="#ffffff"/><rect x="269.44" y="107.78" width="53.89" height="53.89" fill="#9e9ee1"/><rect x="269.44" y="107.78" width="53.89" height="53.89" fill="#ffffff"/><rect x="323.33" y="107.78" width="53.89" height="53.89" fill="#4f4fc8"/><rect x="323.33" y="107.78" width="53.89" height="53.89" fill="#ffffff"/><rect x="377.22183333333334" y="107.77766666666666" width="53.88883333333333" height="53.88883333333333" fill="#ffffff"/><rect x="377.22" y="107.78" width="26.94" height="26.94" fill="#5f5fcd"/><polygon points="404.16,107.78 404.16,134.72 377.22,134.72" fill="#ffffff"/><rect x="404.17" y="107.78" width="26.94" height="26.94" fill="#dcdcf4"/><polygon points="404.17,107.78 431.11,134.72 404.17,134.72" fill="#4444a3"/><rect x="377.22" y="134.72" width="26.94" height="26.94" fill="#3d3dc2"/><polygon points="377.22,134.72 404.16,134.72 404.16,161.66" fill="#5a5acb"/><rect x="404.17" y="134.72" width="26.94" height="26.94" fill="#ffffff"/><polygon points="404.17,134.72 431.11,134.72 404.17,161.66" fill="#6969d0"/><rect x="431.11066666666665" y="107.77766666666666" width="53.88883333333333" height="53.88883333333333" fill="#ffffff"/><rect x="431.11" y="107.78" width="26.94" height="26.94" fill="#e4e4f7"/><path d="M 431.11 107.78 A 26.94 26.94 0 0 1 458.05 134.72 L 431.11 134.72L431.11 107.78" fill="#ffffff"/><rect x="458.06" y="107.78" width="26.94" height="26.94" fill="#8f8fc8"/><path d="M 458.06 134.72 A 26.94 26.94 0 0 1  485 107.78 L 485 134.72L458.06 134.72" fill="#252593"/><rect x="431.11" y="134.72" width="26.94" height="26.94" fill="#4040c3"/><path d="M 431.11 161.66 A 26.94 26.94 0 0 0 458.05 134.72 L 431.11 134.72L431.11 161.66" fill="#b1b1d8"/><rect x="458.06" y="134.72" width="26.94" height="26.94" fill="#4a4aa6"/><path d="M 458.06 134.72 A 26.94 26.94 0 0 0 485 161.66 L 485 134.72L458.06 134.72" fill="#c9c9ee"/><rect x="485" y="107.78" width="53.89" height="53.89" fill="#dbdbf4"/><polygon points="538.89,107.78 538.89,161.67000000000002 485,161.67000000000002" fill="#ffffff"/><rect x="0" y="161.67" width="53.89" height="53.89" fill="#ffffff"/><rect x="0" y="161.67" width="53.89" height="53.89" fill="#8686c3"/><rect x="53.88883333333333" y="161.66649999999998" width="53.88883333333333" height="53.88883333333333" fill="#ffffff"/><rect x="53.89" y="161.67" width="26.94" height="26.94" fill="#ffffff"/><path d="M 53.89 161.67 A 26.94 26.94 0 0 1 80.83 188.60999999999999 L 53.89 188.60999999999999L53.89 161.67" fill="#7979d5"/><rect x="80.83" y="161.67" width="26.94" height="26.94" fill="#ffffff"/><path d="M 80.83 188.60999999999999 A 26.94 26.94 0 0 1  107.77 161.67 L 107.77 188.60999999999999L80.83 188.60999999999999" fill="#b3b3d9"/><rect x="53.89" y="188.61" width="26.94" height="26.94" fill="#f2f2f8"/><path d="M 53.89 215.55 A 26.94 26.94 0 0 0 80.83 188.61 L 53.89 188.61L53.89 215.55" fill="#f6f6fc"/><rect x="80.83" y="188.61" width="26.94" height="26.94" fill="#7e7ebf"/><path d="M 80.83 188.61 A 26.94 26.94 0 0 0 107.77 215.55 L 107.77 188.61L80.83 188.61" fill="#4040c3"/><rect x="107.77766666666666" y="161.66649999999998" width="53.88883333333333" height="53.88883333333333" fill="#ffffff"/><rect x="107.78" y="161.67" width="26.94" height="26.94" fill="#32329a"/><path d="M 107.78 188.60999999999999 A 26.94 26.94 0 0 1  134.72 161.67 L 134.72 188.60999999999999L107.78 188.60999999999999" fill="#7272d3"/><rect x="134.72" y="161.67" width="26.94" height="26.94" fill="#ffffff"/><path d="M 134.72 161.67 A 26.94 26.94 0 0 1 161.66 188.60999999999999 L 134.72 188.60999999999999L134.72 161.67" fill="#ffffff"/><rect x="107.78" y="188.61" width="26.94" height="26.94" fill="#ffffff"/><path d="M 107.78 188.61 A 26.94 26.94 0 0 0 134.72 215.55 L 134.72 188.61L107.78 188.61" fill="#e6e6f2"/><rect x="134.72" y="188.61" width="26.94" height="26.94" fill="#ffffff"/><path d="M 134.72 215.55 A 26.94 26.94 0 0 0 161.66 188.61 L 134.72 188.61L134.72 215.55" fill="#fafafc"/><rect x="161.67" y="161.67" width="53.89" height="53.89" fill="#ffffff"/><rect x="161.67" y="161.67" width="53.89" height="53.89" fill="#4545c4"/><rect x="215.55533333333332" y="161.66649999999998" width="53.88883333333333" height="53.88883333333333" fill="#ffffff"/><rect x="215.56" y="161.67" width="26.94" height="26.94" fill="#ffffff"/><path d="M 215.56 161.67 A 26.94 26.94 0 0 1 242.5 188.60999999999999 L 215.56 188.60999999999999L215.56 161.67" fill="#ffffff"/><rect x="242.5" y="161.67" width="26.94" height="26.94" fill="#070784"/><path d="M 242.5 188.60999999999999 A 26.94 26.94 0 0 1  269.44 161.67 L 269.44 188.60999999999999L242.5 188.60999999999999" fill="#ffffff"/><rect x="215.56" y="188.61" width="26.94" height="26.94" fill="#5d5dcc"/><path d="M 215.56 215.55 A 26.94 26.94 0 0 0 242.5 188.61 L 215.56 188.61L215.56 215.55" fill="#c4c4ec"/><rect x="242.5" y="188.61" width="26.94" height="26.94" fill="#3535c0"/><path d="M 242.5 188.61 A 26.94 26.94 0 0 0 269.44 215.55 L 269.44 188.61L242.5 188.61" fill="#aeaed7"/><rect x="269.44" y="161.67" width="53.89" height="53.89" fill="#ffffff"/><path d="M 269.44 161.67 A 53.89 53.89 0 0 1  323.33 215.56 L 269.44 161.67 A 53.89 53.89 0 0 0 323.33 215.56" fill="#ffffff"/><rect x="323.33299999999997" y="161.66649999999998" width="53.88883333333333" height="53.88883333333333" fill="#ffffff"/><rect x="323.33" y="161.67" width="26.94" height="26.94" fill="#0c0c87"/><path d="M 323.33 161.67 A 26.94 26.94 0 0 1 350.27 188.60999999999999 L 323.33 188.60999999999999L323.33 161.67" fill="#5353aa"/><rect x="350.28" y="161.67" width="26.94" height="26.94" fill="#5353c9"/><path d="M 350.28 188.60999999999999 A 26.94 26.94 0 0 1  377.21999999999997 161.67 L 377.21999999999997 188.60999999999999L350.28 188.60999999999999" fill="#4040c3"/><rect x="323.33" y="188.61" width="26.94" height="26.94" fill="#9696de"/><path d="M 323.33 215.55 A 26.94 26.94 0 0 0 350.27 188.61 L 323.33 188.61L323.33 215.55" fill="#ffffff"/><rect x="350.28" y="188.61" width="26.94" height="26.94" fill="#ffffff"/><path d="M 350.28 188.61 A 26.94 26.94 0 0 0 377.21999999999997 215.55 L 377.21999999999997 188.61L350.28 188.61" fill="#5454ab"/><rect x="377.22" y="161.67" width="53.89" height="53.89" fill="#18188d"/><rect x="377.22" y="161.67" width="53.89" height="53.89" fill="#d4d4f1"/><rect x="431.11066666666665" y="161.66649999999998" width="53.88883333333333" height="53.88883333333333" fill="#ffffff"/><rect x="431.11" y="161.67" width="26.94" height="26.94" fill="#262694"/><polygon points="458.05,161.67 458.05,188.60999999999999 431.11,188.60999999999999" fill="#acacd6"/><rect x="458.06" y="161.67" width="26.94" height="26.94" fill="#ffffff"/><polygon points="458.06,161.67 485,188.60999999999999 458.06,188.60999999999999" fill="#2727bb"/><rect x="431.11" y="188.61" width="26.94" height="26.94" fill="#1c1c8f"/><polygon points="431.11,188.61 458.05,188.61 431.11,215.55" fill="#ffffff"/><rect x="458.06" y="188.61" width="26.94" height="26.94" fill="#5050c8"/><polygon points="458.06,188.61 485,188.61 485,215.55" fill="#292995"/><rect x="485" y="161.67" width="53.89" height="53.89" fill="#c3c3ec"/><rect x="485" y="161.67" width="53.89" height="53.89" fill="#ffffff"/><rect x="0" y="215.55533333333332" width="53.88883333333333" height="53.88883333333333" fill="#ffffff"/><rect x="0" y="215.56" width="26.94" height="26.94" fill="#ffffff"/><path d="M 0 242.5 A 26.94 26.94 0 0 1  26.94 215.56 L 26.94 242.5L0 242.5" fill="#4242a2"/><rect x="26.94" y="215.56" width="26.94" height="26.94" fill="#ededf9"/><path d="M 26.94 215.56 A 26.94 26.94 0 0 1 53.88 242.5 L 26.94 242.5L26.94 215.56" fill="#7e7ed6"/><rect x="0" y="242.5" width="26.94" height="26.94" fill="#a2a2d1"/><path d="M 0 242.5 A 26.94 26.94 0 0 0 26.94 269.44 L 26.94 242.5L0 242.5" fill="#d4d4f2"/><rect x="26.94" y="242.5" width="26.94" height="26.94" fill="#bfbfdf"/><path d="M 26.94 269.44 A 26.94 26.94 0 0 0 53.88 242.5 L 26.94 242.5L26.94 269.44" fill="#6a6ad0"/><rect x="53.88883333333333" y="215.55533333333332" width="53.88883333333333" height="53.88883333333333" fill="#ffffff"/><rect x="53.89" y="215.56" width="26.94" height="26.94" fill="#ffffff"/><path d="M 53.89 242.5 A 26.94 26.94 0 0 1  80.83 215.56 L 80.83 242.5L53.89 242.5" fill="#cfcff0"/><rect x="80.83" y="215.56" width="26.94" height="26.94" fill="#cacae5"/><path d="M 80.83 215.56 A 26.94 26.94 0 0 1 107.77 242.5 L 80.83 242.5L80.83 215.56" fill="#c9c9e4"/><rect x="53.89" y="242.5" width="26.94" height="26.94" fill="#f2f2f9"/><path d="M 53.89 242.5 A 26.94 26.94 0 0 0 80.83 269.44 L 80.83 242.5L53.89 242.5" fill="#e8e8f4"/><rect x="80.83" y="242.5" width="26.94" height="26.94" fill="#9494ca"/><path d="M 80.83 269.44 A 26.94 26.94 0 0 0 107.77 242.5 L 80.83 242.5L80.83 269.44" fill="#d9d9ec"/><rect x="107.78" y="215.56" width="53.89" height="53.89" fill="#4141a1"/><rect x="107.78" y="215.56" width="53.89" height="53.89" fill="#ffffff"/><rect x="161.67" y="215.56" width="53.89" height="53.89" fill="#b3b3e7"/><rect x="161.67" y="215.56" width="53.89" height="53.89" fill="#f6f6fc"/><rect x="215.56" y="215.56" width="53.89" height="53.89" fill="#9f9fd0"/><polygon points="215.56,215.56 269.45,269.45 215.56,269.45" fill="#2626bb"/><rect x="269.44" y="215.56" width="53.89" height="53.89" fill="#4343c4"/><path d="M 269.44 269.45 A 53.89 53.89 0 0 1  323.33 215.56 L 269.44 269.45 A 53.89 53.89 0 0 0 323.33 215.56" fill="#19198e"/><rect x="323.33" y="215.56" width="53.89" height="53.89" fill="#d3d3f1"/><path d="M 323.33 269.45 A 53.89 53.89 0 0 1  377.21999999999997 215.56 L 377.21999999999997 269.45L323.33 269.45" fill="#ffffff"/><rect x="377.22183333333334" y="215.55533333333332" width="53.88883333333333" height="53.88883333333333" fill="#ffffff"/><rect x="377.22" y="215.56" width="26.94" height="26.94" fill="#e6e6f7"/><path d="M 377.22 215.56 A 26.94 26.94 0 0 1 404.16 242.5 L 377.22 242.5L377.22 215.56" fill="#e0e0f5"/><rect x="404.17" y="215.56" width="26.94" height="26.94" fill="#ffffff"/><path d="M 404.17 242.5 A 26.94 26.94 0 0 1  431.11 215.56 L 431.11 242.5L404.17 242.5" fill="#ffffff"/><rect x="377.22" y="242.5" width="26.94" height="26.94" fill="#7878bc"/><path d="M 377.22 269.44 A 26.94 26.94 0 0 0 404.16 242.5 L 377.22 242.5L377.22 269.44" fill="#ffffff"/><rect x="404.17" y="242.5" width="26.94" height="26.94" fill="#b1b1e6"/><path d="M 404.17 242.5 A 26.94 26.94 0 0 0 431.11 269.44 L 431.11 242.5L404.17 242.5" fill="#afafe6"/><rect x="431.11" y="215.56" width="53.89" height="53.89" fill="#ffffff"/><polygon points="431.11,215.56 485,269.45 431.11,269.45" fill="#a3a3d2"/><rect x="484.99949999999995" y="215.55533333333332" width="53.88883333333333" height="53.88883333333333" fill="#ffffff"/><rect x="485" y="215.56" width="26.94" height="26.94" fill="#2727bb"/><polygon points="511.94,215.56 511.94,242.5 485,242.5" fill="#1c1cb8"/><rect x="511.94" y="215.56" width="26.94" height="26.94" fill="#d5d5f2"/><polygon points="511.94,215.56 538.88,215.56 511.94,242.5" fill="#e2e2f6"/><rect x="485" y="242.5" width="26.94" height="26.94" fill="#f2f2fb"/><polygon points="485,242.5 511.94,242.5 511.94,269.44" fill="#8383d8"/><rect x="511.94" y="242.5" width="26.94" height="26.94" fill="#5f5fcd"/><polygon points="511.94,242.5 538.88,269.44 511.94,269.44" fill="#ffffff"/><rect x="0" y="269.44" width="53.89" height="53.89" fill="#bfbfeb"/><polygon points="0,269.44 53.89,323.33 0,323.33" fill="#ffffff"/><rect x="53.88883333333333" y="269.44416666666666" width="53.88883333333333" height="53.88883333333333" fill="#ffffff"/><rect x="53.89" y="269.44" width="26.94" height="26.94" fill="#2828bb"/><path d="M 53.89 269.44 A 26.94 26.94 0 0 0 80.83 296.38 L 80.83 269.44L53.89 269.44" fill="#7070d2"/><rect x="80.83" y="269.44" width="26.94" height="26.94" fill="#ffffff"/><path d="M 80.83 296.38 A 26.94 26.94 0 0 0 107.77 269.44 L 80.83 269.44L80.83 296.38" fill="#1b1bb7"/><rect x="53.89" y="296.39" width="26.94" height="26.94" fill="#aaaae4"/><path d="M 53.89 323.33 A 26.94 26.94 0 0 1  80.83 296.39 L 80.83 323.33L53.89 323.33" fill="#a5a5e3"/><rect x="80.83" y="296.39" width="26.94" height="26.94" fill="#7878bc"/><path d="M 80.83 296.39 A 26.94 26.94 0 0 1 107.77 323.33 L 80.83 323.33L80.83 296.39" fill="#7878bc"/><rect x="107.78" y="269.44" width="53.89" height="53.89" fill="#222292"/><polygon points="107.78,269.44 161.67000000000002,323.33 107.78,323.33" fill="#6d6dd1"/><rect x="161.66649999999998" y="269.44416666666666" width="53.88883333333333" height="53.88883333333333" fill="#ffffff"/><rect x="161.67" y="269.44" width="26.94" height="26.94" fill="#ffffff"/><path d="M 161.67 296.38 A 26.94 26.94 0 0 0 188.60999999999999 269.44 L 161.67 269.44L161.67 296.38" fill="#4747c5"/><rect x="188.61" y="269.44" width="26.94" height="26.94" fill="#ffffff"/><path d="M 188.61 269.44 A 26.94 26.94 0 0 0 215.55 296.38 L 215.55 269.44L188.61 269.44" fill="#3939c1"/><rect x="161.67" y="296.39" width="26.94" height="26.94" fill="#ffffff"/><path d="M 161.67 296.39 A 26.94 26.94 0 0 1 188.60999999999999 323.33 L 161.67 323.33L161.67 296.39" fill="#d1d1f1"/><rect x="188.61" y="296.39" width="26.94" height="26.94" fill="#ffffff"/><path d="M 188.61 323.33 A 26.94 26.94 0 0 1  215.55 296.39 L 215.55 323.33L188.61 323.33" fill="#ffffff"/><rect x="215.56" y="269.44" width="53.89" height="53.89" fill="#ffffff"/><path d="M 215.56 323.33 A 53.89 53.89 0 0 1  269.45 269.44 L 215.56 323.33 A 53.89 53.89 0 0 0 269.45 269.44" fill="#1c1c8f"/><rect x="269.44" y="269.44" width="53.89" height="53.89" fill="#b4b4e8"/><path d="M 269.44 323.33 A 53.89 53.89 0 0 0 323.33 269.44 L 269.44 269.44L269.44 323.33" fill="#f4f4f9"/><rect x="323.33299999999997" y="269.44416666666666" width="53.88883333333333" height="53.88883333333333" fill="#ffffff"/><rect x="323.33" y="269.44" width="26.94" height="26.94" fill="#34349b"/><path d="M 323.33 269.44 A 26.94 26.94 0 0 1 350.27 296.38 L 323.33 296.38L323.33 269.44" fill="#f9f9fd"/><rect x="350.28" y="269.44" width="26.94" height="26.94" fill="#fdfdfe"/><path d="M 350.28 296.38 A 26.94 26.94 0 0 1  377.21999999999997 269.44 L 377.21999999999997 296.38L350.28 296.38" fill="#0c0c87"/><rect x="323.33" y="296.39" width="26.94" height="26.94" fill="#5353aa"/><path d="M 323.33 323.33 A 26.94 26.94 0 0 0 350.27 296.39 L 323.33 296.39L323.33 323.33" fill="#ffffff"/><rect x="350.28" y="296.39" width="26.94" height="26.94" fill="#ffffff"/><path d="M 350.28 296.39 A 26.94 26.94 0 0 0 377.21999999999997 323.33 L 377.21999999999997 296.39L350.28 296.39" fill="#ffffff"/><rect x="377.22183333333334" y="269.44416666666666" width="53.88883333333333" height="53.88883333333333" fill="#ffffff"/><rect x="377.22" y="269.44" width="26.94" height="26.94" fill="#7272d3"/><path d="M 377.22 296.38 A 26.94 26.94 0 0 0 404.16 269.44 L 377.22 269.44L377.22 296.38" fill="#9898df"/><rect x="404.17" y="269.44" width="26.94" height="26.94" fill="#1e1e90"/><path d="M 404.17 269.44 A 26.94 26.94 0 0 0 431.11 296.38 L 431.11 269.44L404.17 269.44" fill="#8585c3"/><rect x="377.22" y="296.39" width="26.94" height="26.94" fill="#4545a3"/><path d="M 377.22 296.39 A 26.94 26.94 0 0 1 404.16 323.33 L 377.22 323.33L377.22 296.39" fill="#3e3ea0"/><rect x="404.17" y="296.39" width="26.94" height="26.94" fill="#fcfcfe"/><path d="M 404.17 323.33 A 26.94 26.94 0 0 1  431.11 296.39 L 431.11 323.33L404.17 323.33" fill="#babae9"/><rect x="431.11066666666665" y="269.44416666666666" width="53.88883333333333" height="53.88883333333333" fill="#ffffff"/><rect x="431.11" y="269.44" width="26.94" height="26.94" fill="#8888d9"/><circle cx="444.58000000000004" cy="282.91" r="13.47" fill="#f8f8fb"/><rect x="458.06" y="269.44" width="26.94" height="26.94" fill="#8a8ada"/><rect x="458.06" y="269.44" width="26.94" height="26.94" fill="#ffffff"/><rect x="431.11" y="296.39" width="26.94" height="26.94" fill="#ffffff"/><circle cx="444.58000000000004" cy="309.86" r="13.47" fill="#8a8ac5"/><rect x="458.06" y="296.39" width="26.94" height="26.94" fill="#a0a0e1"/><rect x="458.06" y="296.39" width="26.94" height="26.94" fill="#ffffff"/><rect x="484.99949999999995" y="269.44416666666666" width="53.88883333333333" height="53.88883333333333" fill="#ffffff"/><rect x="485" y="269.44" width="26.94" height="26.94" fill="#fdfdfe"/><polygon points="511.94,269.44 511.94,296.38 485,296.38" fill="#4646a4"/><rect x="511.94" y="269.44" width="26.94" height="26.94" fill="#cacae5"/><polygon points="511.94,269.44 538.88,296.38 511.94,296.38" fill="#ffffff"/><rect x="485" y="296.39" width="26.94" height="26.94" fill="#6464b3"/><polygon points="485,296.39 511.94,296.39 485,323.33" fill="#ffffff"/><rect x="511.94" y="296.39" width="26.94" height="26.94" fill="#7777bc"/><polygon points="511.94,296.39 538.88,296.39 538.88,323.33" fill="#9d9dcf"/></g></svg>